<svg width="64" height="64" viewBox="0 0 64 64" fill="none" xmlns="http://www.w3.org/2000/svg">
<path fill-rule="evenodd" clip-rule="evenodd" d="M34.788 25.6869C35.3291 25.1874 36.1726 25.2211 36.6721 25.7622L40.9798 30.4288C41.4513 30.9396 41.4513 31.7268 40.9798 32.2376L36.6721 36.9043C36.1727 37.4454 35.3291 37.4791 34.788 36.9797C34.2469 36.4802 34.2132 35.6367 34.7126 35.0956L36.9548 32.6665L24.0001 32.6665C23.2637 32.6665 22.6667 32.0696 22.6667 31.3332C22.6667 30.5968 23.2637 29.9999 24.0001 29.9999L36.9547 29.9999L34.7127 27.571C34.2132 27.0299 34.2469 26.1863 34.788 25.6869Z" fill="#23262F"/>
<rect x="0.5" y="0.5" width="63" height="63" rx="31.5" stroke="black"/>
</svg>
