<svg width="64" height="64" viewBox="0 0 64 64" fill="none" xmlns="http://www.w3.org/2000/svg">
<path fill-rule="evenodd" clip-rule="evenodd" d="M29.212 38.3131C28.6709 38.8126 27.8274 38.7789 27.3279 38.2378L23.0202 33.5712C22.5487 33.0604 22.5487 32.2732 23.0202 31.7624L27.3279 27.0957C27.8273 26.5546 28.6709 26.5209 29.212 27.0203C29.7531 27.5198 29.7868 28.3633 29.2874 28.9044L27.0452 31.3335L39.9999 31.3335C40.7363 31.3335 41.3333 31.9304 41.3333 32.6668C41.3333 33.4032 40.7363 34.0001 39.9999 34.0001L27.0453 34.0001L29.2873 36.429C29.7868 36.9701 29.7531 37.8137 29.212 38.3131Z" fill="#23262F"/>
<rect x="63.5" y="63.5" width="63" height="63" rx="31.5" transform="rotate(180 63.5 63.5)" stroke="black"/>
</svg>
